<svg width="196" height="80" viewBox="0 0 196 80" fill="none" xmlns="http://www.w3.org/2000/svg">
<path d="M114.437 61.2547C114.437 58.2302 114.463 48.6804 114.463 48.6804H111.236L111.21 61.6923C111.21 61.6923 111.029 65 114.411 65H123.676C123.676 65 124.272 63.8674 125.049 62.1814H115.383C114.865 62.1685 114.437 61.7824 114.437 61.2547ZM109.656 65C109.656 65 109.811 62.1814 108.282 62.1814C106.053 62.1814 101.699 62.1814 99.7687 62.1814C99.2375 62.1814 98.8099 61.7824 98.8099 61.2547C98.8099 58.2302 98.8099 48.6804 98.8099 48.6804H95.5834V61.6923C95.5834 61.6923 95.402 65 98.7839 65H109.656ZM135.208 52.2197C135.377 51.9108 135.688 51.499 136.245 51.4861C136.906 51.499 137.113 51.8851 137.282 52.2069C138.435 54.3433 140.715 59.3885 140.715 59.3885H131.8C131.788 59.4014 134.068 54.3691 135.208 52.2197ZM130.777 61.8725H141.713L143.19 65H147L139.964 50.3278C139.964 50.3278 139.303 48.719 137.58 48.719H134.923C133.213 48.719 132.539 50.3278 132.539 50.3278L125.49 64.9871H129.313L130.777 61.8725ZM76.7945 45.2054C76.95 45.4242 77.2999 45.3341 77.274 45.0638C77.0796 43.4293 76.5872 41.7561 75.4728 40.4948C74.3714 39.2464 72.8165 38.7316 71.1838 38.4871C69.4086 38.2039 67.5945 38.294 65.7933 38.397C64.99 38.4356 64.0699 38.6286 63.2666 38.4742C62.3206 38.294 62.3336 37.3931 62.6057 36.6595C62.7353 36.312 63.0722 35.9259 63.0852 35.5526C63.0981 35.3724 63.0204 35.1922 62.9167 35.0378L62.7094 34.7933C62.5668 34.6646 62.528 34.6646 62.5928 34.4586C62.6575 34.2527 62.7612 34.0596 62.8908 33.9052C63.0333 33.7508 63.2795 33.725 63.3184 33.4805C63.3702 33.2231 63.1629 33.1201 62.9685 33.03C62.7223 32.9271 62.1133 32.4251 62.4113 32.1677C62.7742 31.8459 63.0074 31.3955 63.0204 30.9193C63.0333 30.5203 62.8649 30.1471 62.528 29.9154C62.1392 29.6451 61.6339 29.2719 61.5561 28.7828C61.5173 28.5383 62.3206 28.1264 62.515 27.9977C62.9685 27.6888 63.4221 27.3928 63.8626 27.071C64.7049 26.4661 65.6378 25.784 66.1562 24.8573C66.6615 23.9693 66.5449 22.8238 66.7652 21.8457C66.8688 21.3823 67.0243 20.919 67.2317 20.4943C67.7241 19.7221 68.3072 19.0399 69.0457 18.4994L69.2272 18.3707L69.2531 18.3449L69.5252 18.1776C69.7973 18.0103 70.1083 17.8559 70.3674 17.6628C70.7303 17.3925 70.9376 16.9935 71.2227 16.646C72.6869 14.8313 74.9934 14.265 77.2869 14.3165C80.7467 14.3937 83.6881 16.5431 86.3963 18.4479C89.3766 20.5458 92.305 22.7595 95.4927 24.5484C97.0994 25.4494 98.771 26.2473 100.585 26.6463C102.594 27.0968 104.667 27.1096 106.688 26.8394C108.373 26.6206 110.018 26.2087 111.612 25.6553C113.025 25.1662 114.372 24.5484 115.746 23.9693C117.599 23.1971 119.491 22.4506 121.473 22.0259C123.209 21.6655 125.166 21.5368 126.825 22.2575C127.537 22.5664 128.431 23.2743 128.911 23.8792C129.079 24.0851 129.429 24.4841 129.507 24.0079C129.598 23.4931 129.494 22.9268 129.287 22.4634C128.665 21.0863 127.68 20.1983 125.944 19.4775C124.557 18.8984 123.093 18.6924 121.616 18.834C118.674 19.1172 115.901 20.2369 113.18 21.2922C111.185 22.0645 109.202 22.9911 107.077 23.3258C103.889 23.8406 100.417 23.2357 97.5918 21.7298C94.8059 20.2497 92.2532 18.3449 89.6876 16.5431C87.0701 14.7155 84.4785 12.875 81.4464 11.7939C78.505 10.7385 75.2914 10.6613 72.4277 12.0127C71.0153 12.682 69.6807 13.7888 69.1365 15.2818C69.0457 15.5135 69.0069 15.7837 68.8643 15.9897L68.6829 16.1827C68.5534 16.2599 68.4367 16.3372 68.3849 16.3629L68.1905 16.4787L68.0739 16.5302C67.8407 16.646 67.6204 16.8005 67.4001 16.9678C66.9725 17.2638 66.5708 17.5727 66.208 17.9588C65.1325 19.0914 64.6142 20.5844 64.2643 22.0645C64.1607 22.5407 64.0699 23.0169 63.9792 23.5059C63.8885 24.0594 63.7071 24.4069 63.3054 24.8059C62.5539 25.5395 61.6339 26.1186 60.7527 26.6978C60.3511 26.9681 59.9364 27.2255 59.5218 27.4958C59.2885 27.6502 58.9386 27.8047 58.7961 28.0363C58.3555 28.7184 58.9775 29.5808 59.444 30.0441C59.7161 30.3015 60.1567 30.5332 60.1956 30.9321C60.2344 31.2539 60.0141 31.5628 59.7939 31.7816C59.6772 31.8974 59.457 32.0004 59.431 32.1677C59.4051 32.3608 59.3922 32.5667 59.444 32.7469C59.5477 33.1845 59.8975 33.4676 60.2603 33.7121C59.6643 33.9696 58.6665 34.9863 59.444 35.5783C59.9105 35.9258 59.8716 36.209 59.742 36.7109C59.6125 37.2129 59.5088 37.7277 59.4958 38.2554C59.4829 39.1177 59.7679 39.9543 60.5972 40.3661C61.4654 40.7908 62.5798 40.7136 63.5257 40.675C67.2317 40.5077 71.43 39.5296 74.5528 42.0908C74.9934 42.4511 75.3821 42.863 75.732 43.3134C75.9523 43.6095 76.1466 43.9055 76.328 44.2272C76.4835 44.5104 76.5872 44.9094 76.7945 45.2054ZM116.42 35.1536C112.934 36.4535 109.487 37.9336 105.755 38.3069C102.244 38.6544 98.7192 37.998 95.7129 36.1704C93.1732 34.6259 90.9704 32.5924 88.7028 30.7005C87.5495 29.7352 86.3833 28.7313 84.958 28.1521C84.2323 27.8561 83.403 27.6116 82.5996 27.6759C82.3534 27.6888 81.5241 27.8175 81.6926 28.2551C81.9517 28.461 82.3405 28.4353 82.6385 28.5769C82.9365 28.7184 83.2086 28.8858 83.4808 29.0659C84.4915 29.7481 85.4115 30.5718 86.2667 31.447C87.5106 32.7211 88.6509 34.0983 89.9078 35.3853C91.1 36.6208 92.3828 37.8307 93.7434 38.886C94.8059 39.7097 95.9721 40.379 97.242 40.8552C98.8747 41.4472 100.624 41.7304 102.36 41.872C106.61 42.2195 110.718 41.177 114.657 39.684C118.247 38.3326 121.758 36.7238 125.594 36.0932C128.263 35.6556 131.243 35.7328 133.524 37.3416C134.237 37.8307 134.807 38.4742 135.182 39.2464L135.325 39.5038C135.558 39.8127 135.74 39.0533 135.779 38.8989C135.96 38.1009 135.804 37.1357 135.442 36.4149C134.897 35.3209 133.861 34.6646 132.85 34.1111C131.528 33.3904 129.896 33.1201 128.393 32.9785C124.298 32.5409 120.216 33.7508 116.42 35.1536ZM122.834 25.7583C119.607 26.1444 116.718 27.6502 113.711 28.7828C111.897 29.4778 110.031 30.0441 108.114 30.4302C106.131 30.8292 104.097 31.048 102.075 30.752C100.52 30.5203 99.0561 29.9797 97.6566 29.2976C96.3868 28.6927 95.1169 28.0621 93.9377 27.3156C91.398 25.7197 89.0526 23.8148 86.7461 21.9229C84.4267 20.0181 81.6537 18.0747 78.4661 18.4222C77.7275 18.4994 77.0019 18.7053 76.354 19.0657C76.1207 19.2072 75.1359 19.7478 75.2914 20.0953C75.3951 20.3398 75.7709 20.2755 75.9782 20.2369C76.3928 20.1725 76.7945 20.1082 77.2092 20.0696C77.9607 20.0052 78.6993 20.0953 79.425 20.2755C81.3946 20.6616 83.092 21.8714 84.5822 23.1327C85.7354 24.1109 86.8109 25.1791 87.8735 26.2473C90.167 28.5383 92.4864 31.048 95.4538 32.5281C99.069 34.3299 103.138 34.9348 107.129 34.2784C110.692 33.6864 114.256 32.5152 117.482 30.9193C119.374 29.9926 121.331 29.1432 123.43 28.7828C125.27 28.461 127.265 28.4224 129.002 29.1689C130.103 29.6451 131.023 30.3787 131.878 31.2024C131.995 31.3183 132.176 31.5371 132.358 31.5113C132.578 31.4727 132.539 31.0222 132.539 30.8807C132.552 30.2886 132.448 29.7095 132.215 29.1689C131.632 27.869 130.375 27.0453 129.079 26.5305C127.097 25.7325 124.933 25.5137 122.834 25.7583ZM80.5782 64.9485H93.536C93.536 64.9485 93.6526 62.1814 92.1236 62.1042C89.3507 62.1042 83.2605 62.117 81.1613 62.117C80.0599 62.117 80.1765 61.1131 80.1765 61.1131V58.05H89.5839V55.2057H80.1765V52.4514C80.1765 52.4514 80.1765 51.5762 81.1613 51.5762H92.0977C93.2769 51.5762 93.4453 48.7319 93.4453 48.7319H80.5134C76.7168 48.7319 76.8464 52.0009 76.8464 52.0009V61.5894C76.8334 61.6022 76.8852 64.9485 80.5782 64.9485ZM67.9055 60.1865C67.6204 59.4271 65.4694 53.4038 64.3291 50.2763C64.355 50.3278 64.0181 49.0021 63.137 48.9893C62.8649 48.9378 61.1933 48.9507 61.1933 48.9507C61.1933 48.9507 60.2474 48.8091 59.7032 50.302C58.5499 53.4295 56.373 59.4014 56.0879 60.1736C55.7251 59.0539 52.4079 48.7319 52.4079 48.7319H49L54.2997 64.9485H57.4744C57.4744 64.9485 61.5691 54.3047 61.9578 53.288C62.3336 54.3176 66.2728 64.9485 66.2728 64.9485H69.6029L75.0711 48.7319H71.7151C71.7151 48.7319 68.2683 59.0668 67.9055 60.1865Z" fill="#D4E3ED"/>
</svg>
