<svg width="47" height="37" viewBox="0 0 47 37" fill="none" xmlns="http://www.w3.org/2000/svg">
<path d="M46.0214 0.938575C45.2705 0.188895 43.8549 0.017709 42.4392 0C41.0235 0.017709 39.6017 0.188895 38.857 0.938575C38.0753 1.65874 37.8968 3.01643 37.8783 4.37412C37.8968 5.7318 38.0753 7.09539 38.857 7.80966C39.6079 8.55933 41.0235 8.73052 42.4392 8.74823C43.8549 8.73052 45.2767 8.55933 46.0214 7.80966C46.8031 7.08949 46.9816 5.7318 47.0001 4.37412C46.9816 3.01643 46.8031 1.65284 46.0214 0.938575Z" fill="#250E62"/>
<path d="M33.3975 0.938575C32.6466 0.188895 31.231 0.017709 29.8153 0C28.3996 0.017709 26.9778 0.188895 26.2331 0.938575C25.4514 1.65874 25.2729 3.01643 25.2544 4.37412C25.2729 5.7318 25.4514 7.09539 26.2331 7.80966C26.984 8.55933 28.3996 8.73052 29.8153 8.74823C31.231 8.73052 32.6528 8.55933 33.3975 7.80966C34.1792 7.08949 34.3577 5.7318 34.3762 4.37412C34.3577 3.01643 34.1792 1.65284 33.3975 0.938575Z" fill="#250E62"/>
<path d="M20.767 0.938575C20.0161 0.188895 18.6005 0.017709 17.1848 0C15.7691 0.017709 14.3473 0.188895 13.6026 0.938575C12.8209 1.65874 12.6424 3.01643 12.6239 4.37412C12.6424 5.7318 12.8209 7.09539 13.6026 7.80966C14.3535 8.55933 15.7691 8.73052 17.1848 8.74823C18.6005 8.73052 20.0223 8.55933 20.767 7.80966C21.5487 7.08949 21.7272 5.7318 21.7457 4.37412C21.7334 3.01643 21.5549 1.65284 20.767 0.938575Z" fill="#250E62"/>
<path d="M20.767 13.0456C20.0161 12.296 18.6005 12.1248 17.1848 12.1071C15.7691 12.1248 14.3473 12.296 13.6026 13.0456C12.8209 13.7658 12.6424 15.1235 12.6239 16.4812C12.6424 17.8389 12.8209 19.2024 13.6026 19.9167C14.3535 20.6664 15.7691 20.8376 17.1848 20.8553C18.6005 20.8376 20.0223 20.6664 20.767 19.9167C21.5487 19.1965 21.7272 17.8389 21.7457 16.4812C21.7334 15.1235 21.5549 13.7658 20.767 13.0456Z" fill="#250E62"/>
<path d="M8.14315 0.938575C7.39223 0.188895 5.97656 0.017709 4.5609 0C3.14524 0.017709 1.72342 0.188895 0.978655 0.938575C0.196963 1.65874 0.0184652 3.01643 0 4.37412C0.0184652 5.7318 0.196963 7.09539 0.978655 7.80966C1.72957 8.55933 3.14524 8.73052 4.5609 8.74823C5.97656 8.73052 7.39838 8.55933 8.14315 7.80966C8.92484 7.08949 9.10333 5.7318 9.1218 4.37412C9.10333 3.01643 8.93099 1.65284 8.14315 0.938575Z" fill="#250E62"/>
<path d="M34.3762 16.7823C34.3762 17.7563 34.3823 19.7102 34.3762 20.6901C34.3639 22.0478 34.1792 23.4114 33.3975 24.1256C32.6466 24.8753 31.2309 25.0465 29.8153 25.0642C28.3996 25.0465 26.9778 24.8753 26.233 24.1256C25.4513 23.4055 25.2605 22.0478 25.2544 20.6901C25.2482 19.6807 25.2482 17.6618 25.2544 16.6524C25.2667 15.2947 25.4513 13.9312 26.233 13.2169C26.9839 12.4672 28.3996 12.296 29.8153 12.2783C31.2309 12.296 32.6528 12.4672 33.3975 13.2169C34.1792 13.9371 34.3762 15.2947 34.3762 16.6524" fill="#250E62"/>
<path d="M21.7519 28.7181C21.7519 29.6921 21.7581 31.646 21.7519 32.6259C21.7396 33.9836 21.5549 35.3472 20.7733 36.0614C20.0223 36.8111 18.6067 36.9823 17.191 37C15.7753 36.9823 14.3535 36.8111 13.6088 36.0614C12.8271 35.3412 12.6363 33.9836 12.6301 32.6259C12.6239 31.6165 12.6239 29.5976 12.6301 28.5882C12.6424 27.2305 12.8271 25.867 13.6088 25.1527C14.3597 24.403 15.7753 24.2318 17.191 24.2141C18.6067 24.2318 20.0285 24.403 20.7733 25.1527C21.5549 25.8729 21.7519 27.2305 21.7519 28.5882" fill="#250E62"/>
</svg>
