<svg width="308" height="94" viewBox="0 0 308 94" fill="none" xmlns="http://www.w3.org/2000/svg">
<g clip-path="url(#clip0)">
<path d="M225.276 3.41496C222.766 0.800314 218.06 0.207663 213.319 0.137939C208.577 0.207663 203.871 0.800314 201.361 3.41496C198.746 5.92502 198.154 10.6314 198.084 15.3726C198.154 20.1138 198.746 24.8202 201.361 27.3302C203.871 29.9449 208.577 30.5375 213.319 30.6073C218.06 30.5375 222.766 29.9449 225.276 27.3302C227.891 24.8202 228.484 20.1138 228.553 15.3726C228.484 10.6314 227.891 5.89015 225.276 3.41496Z" fill="#250E62"/>
<path opacity="0.4" d="M185.649 43.0253C183.139 40.4107 178.433 39.818 173.692 39.7483C168.95 39.818 164.244 40.4107 161.734 43.0253C159.119 45.5354 158.527 50.2417 158.457 54.9829C158.527 59.7242 159.119 64.4305 161.734 66.9406C164.244 69.5552 168.95 70.1479 173.692 70.2176C178.433 70.1479 183.139 69.5552 185.649 66.9406C188.264 64.4305 188.857 59.7242 188.926 54.9829C188.857 50.2417 188.264 45.5005 185.649 43.0253Z" fill="#250E62"/>
<path opacity="0.4" d="M106.413 43.0253C103.903 40.4107 99.1966 39.818 94.4554 39.7483C89.7141 39.818 85.0078 40.4107 82.4977 43.0253C79.8831 45.5354 79.2904 50.2417 79.2207 54.9829C79.2904 59.7242 79.8831 64.4305 82.4977 66.9406C85.0078 69.5552 89.7141 70.1479 94.4554 70.2176C99.1966 70.1479 103.903 69.5552 106.413 66.9406C109.028 64.4305 109.62 59.7242 109.69 54.9829C109.62 50.2417 109.028 45.5005 106.413 43.0253Z" fill="#250E62"/>
<path d="M264.87 43.0253C262.36 40.4107 257.654 39.818 252.912 39.7483C248.171 39.818 243.465 40.4107 240.955 43.0253C238.34 45.5354 237.747 50.2417 237.678 54.9829C237.747 59.7242 238.34 64.4305 240.955 66.9406C243.465 69.5552 248.171 70.1479 252.912 70.2176C257.654 70.1479 262.36 69.5552 264.87 66.9406C267.485 64.4305 268.077 59.7242 268.147 54.9829C268.077 50.2417 267.485 45.5005 264.87 43.0253Z" fill="#250E62"/>
<path d="M225.276 43.0253C222.766 40.4107 218.06 39.818 213.319 39.7483C208.577 39.818 203.871 40.4107 201.361 43.0253C198.746 45.5354 198.154 50.2417 198.084 54.9829C198.154 59.7242 198.746 64.4305 201.361 66.9406C203.871 69.5552 208.577 70.1479 213.319 70.2176C218.06 70.1479 222.766 69.5552 225.276 66.9406C227.891 64.4305 228.484 59.7242 228.553 54.9829C228.484 50.2417 227.891 45.5005 225.276 43.0253Z" fill="#250E62"/>
<path d="M304.776 82.6353C302.266 80.0207 297.56 79.428 292.819 79.3583C288.077 79.428 283.371 80.0207 280.861 82.6353C278.246 85.1454 277.654 89.8517 277.584 94.5929C277.654 99.3341 278.246 104.041 280.861 106.551C283.371 109.165 288.077 109.758 292.819 109.828C297.56 109.758 302.266 109.165 304.776 106.551C307.391 104.041 307.984 99.3341 308.053 94.5929C307.984 89.8517 307.391 85.1105 304.776 82.6353Z" fill="#250E62"/>
<path opacity="0.9" d="M185.649 82.6353C183.139 80.0207 178.433 79.428 173.692 79.3583C168.95 79.428 164.244 80.0207 161.734 82.6353C159.119 85.1454 158.527 89.8517 158.457 94.5929C158.527 99.3341 159.119 104.041 161.734 106.551C164.244 109.165 168.95 109.758 173.692 109.828C178.433 109.758 183.139 109.165 185.649 106.551C188.264 104.041 188.857 99.3341 188.926 94.5929C188.857 89.8517 188.264 85.1105 185.649 82.6353Z" fill="#250E62"/>
<path opacity="0.7" d="M106.395 82.6353C103.885 80.0207 99.179 79.428 94.4378 79.3583C89.6966 79.428 84.9902 80.0207 82.4801 82.6353C79.8655 85.1454 79.2728 89.8517 79.2031 94.5929C79.2728 99.3341 79.8655 104.041 82.4801 106.551C84.9902 109.165 89.6966 109.758 94.4378 109.828C99.179 109.758 103.885 109.165 106.395 106.551C109.01 104.041 109.603 99.3341 109.672 94.5929C109.603 89.8517 109.01 85.1105 106.395 82.6353Z" fill="#250E62"/>
<path d="M144.542 4.69853L144.576 4.73392L144.611 4.76765C145.506 5.61431 146.177 6.97472 146.616 8.86946C147.049 10.7391 147.212 12.93 147.247 15.2347C147.212 17.5389 147.049 19.7208 146.616 21.5859C146.178 23.4729 145.506 24.8425 144.601 25.7116L144.571 25.7406L144.542 25.7708C143.673 26.676 142.303 27.3475 140.416 27.7857C138.551 28.2188 136.369 28.3814 134.065 28.4165C131.76 28.3814 129.579 28.2188 127.714 27.7857C125.827 27.3475 124.457 26.676 123.588 25.7708L123.559 25.7406L123.529 25.7116C122.623 24.8425 121.952 23.4729 121.514 21.5859C121.081 19.7208 120.918 17.5389 120.883 15.2347C120.918 12.9304 121.081 10.7485 121.514 8.88345C121.952 6.99643 122.623 5.62679 123.529 4.75776L123.559 4.72875L123.588 4.69853C124.457 3.79329 125.827 3.12179 127.714 2.68359C129.579 2.2505 131.76 2.08787 134.065 2.05286C136.369 2.08787 138.551 2.2505 140.416 2.68359C142.303 3.12179 143.673 3.79329 144.542 4.69853Z" stroke="#250E62" stroke-width="4.10526"/>
<path opacity="0.9" d="M264.87 82.6353C262.36 80.0207 257.654 79.428 252.912 79.3583C248.171 79.428 243.465 80.0207 240.955 82.6353C238.34 85.1454 237.747 89.8517 237.678 94.5929C237.747 99.3341 238.34 104.041 240.955 106.551C243.465 109.165 248.171 109.758 252.912 109.828C257.654 109.758 262.36 109.165 264.87 106.551C267.485 104.041 268.077 99.3341 268.147 94.5929C268.077 89.8517 267.485 85.1105 264.87 82.6353Z" fill="#250E62"/>
<path d="M25.7116 84.0568L25.7455 84.0922L25.7812 84.1259C26.6755 84.9726 27.3464 86.333 27.7855 88.2277C28.2188 90.0974 28.3814 92.2883 28.4164 94.5929C28.3814 96.8972 28.2188 99.0791 27.7857 100.944C27.3475 102.831 26.676 104.201 25.7708 105.07L25.7406 105.099L25.7116 105.129C24.8425 106.034 23.4729 106.706 21.5859 107.144C19.7208 107.577 17.539 107.74 15.2347 107.775C12.9304 107.74 10.7485 107.577 8.88345 107.144C6.99642 106.706 5.62678 106.034 4.75775 105.129L4.72874 105.099L4.69852 105.07C3.79328 104.201 3.12179 102.831 2.68359 100.944C2.2505 99.0791 2.08787 96.8972 2.05286 94.5929C2.08787 92.2886 2.2505 90.1067 2.68359 88.2417C3.12179 86.3547 3.79328 84.9851 4.69852 84.116L4.72874 84.087L4.75775 84.0568C5.62678 83.1516 6.99642 82.4801 8.88345 82.0419C10.7485 81.6088 12.9304 81.4462 15.2347 81.4111C17.539 81.4462 19.7208 81.6088 21.5859 82.0419C23.4729 82.4801 24.8425 83.1516 25.7116 84.0568Z" stroke="#250E62" stroke-width="4.10526"/>
<path opacity="0.9" d="M146.056 82.6353C143.546 80.0207 138.839 79.428 134.098 79.3583C129.357 79.428 124.65 80.0207 122.14 82.6353C119.526 85.1454 118.933 89.8517 118.863 94.5929C118.933 99.3341 119.526 104.041 122.14 106.551C124.65 109.165 129.357 109.758 134.098 109.828C138.839 109.758 143.546 109.165 146.056 106.551C148.67 104.041 149.263 99.3341 149.333 94.5929C149.263 89.8517 148.67 85.1105 146.056 82.6353Z" fill="#250E62"/>
<path d="M66.8017 82.6353C64.2916 80.0207 59.5853 79.428 54.844 79.3583C50.1028 79.428 45.3964 80.0207 42.8864 82.6353C40.2717 85.1454 39.6791 89.8517 39.6094 94.5929C39.6791 99.3341 40.2717 104.041 42.8864 106.551C45.3964 109.165 50.1028 109.758 54.844 109.828C59.5853 109.758 64.2916 109.165 66.8017 106.551C69.4163 104.041 70.009 99.3341 70.0787 94.5929C70.009 89.8517 69.4163 85.1105 66.8017 82.6353Z" fill="#250E62"/>
<path opacity="0.2" d="M225.276 82.6353C222.766 80.0207 218.06 79.428 213.319 79.3583C208.577 79.428 203.871 80.0207 201.361 82.6353C198.746 85.1454 198.154 89.8517 198.084 94.5929C198.154 99.3341 198.746 104.041 201.361 106.551C203.871 109.165 208.577 109.758 213.319 109.828C218.06 109.758 222.766 109.165 225.276 106.551C227.891 104.041 228.484 99.3341 228.553 94.5929C228.484 89.8517 227.891 85.1105 225.276 82.6353Z" fill="#250E62"/>
</g>
<defs>
<clipPath id="clip0">
<rect width="308" height="94" fill="white"/>
</clipPath>
</defs>
</svg>
