<svg width="197" height="80" viewBox="0 0 197 80" fill="none" xmlns="http://www.w3.org/2000/svg">
<g clip-path="url(#clip0)">
<path d="M24.4962 47.6821C26.1693 49.5249 28.2347 50.6509 30.9671 50.6509C34.225 50.6509 36.3938 48.5312 37.6419 45.5524C38.8217 42.7363 38.5693 43.2437 38.5693 43.2437L39.7856 39.7439C39.7856 39.7439 41.3087 35.4598 41.4412 35.1568C42.5169 32.6981 44.6979 29.4181 49.263 28.3272C50.3927 28.0445 51.5597 27.9432 52.7208 28.0271C55.3125 28.2003 56.9829 29.2282 56.9829 29.2282L56.3435 30.2385C55.3954 29.799 55.0618 29.3465 52.363 29.2446C50.029 29.1564 48.5196 30.2045 47.9621 30.7651C47.9621 30.7651 46.1208 31.759 44.4651 36.499C44.4651 36.499 43.4009 40.5936 42.3112 43.626C42.3112 43.626 40.7063 48.5867 36.8038 50.549C36.8038 50.549 31.8093 53.7759 26.2114 50.6033C25.2852 50.0785 23.5 48.4593 23.5 48.4593L24.4962 47.6821Z" fill="#D4E3ED"/>
<path d="M80.5292 48.4283C80.9357 48.7215 81.3609 48.9875 81.802 49.2247C82.4802 49.5939 83.2393 49.7869 84.0104 49.7861C84.7815 49.7853 85.5402 49.5906 86.2176 49.2199C86.3739 49.1301 86.5223 49.0269 86.661 48.9115C87.3487 48.2734 88.038 47.1527 88.7896 45.4404C88.9974 44.9669 90.5339 40.6793 90.5339 40.6793C90.5339 40.6793 91.5867 37.2916 93.5537 34.529C94.1033 33.7263 94.7606 33.0038 95.507 32.3821C96.1328 31.8407 96.8335 31.3936 97.5871 31.0548C98.3074 30.7717 99.2102 30.3082 101.399 30.6745C102.022 30.7787 102.022 30.7787 103.316 31.2013L102.939 32.3715C102.573 32.2605 101.255 31.8229 100.32 31.8229C99.4404 31.825 98.5903 32.1447 97.925 32.7241C96.8246 33.7863 96.142 35.0578 95.2895 37.2219C94.9885 37.986 94.0722 40.8362 93.8071 41.6432C93.485 42.6244 92.5978 45.0929 91.4923 46.8419C90.5487 48.3347 89.1905 49.9209 87.2569 50.7032C85.3919 51.3445 83.3573 51.272 81.5421 50.4996C81.0218 50.2696 79.834 49.4137 79.834 49.4137L80.5292 48.4283Z" fill="#D4E3ED"/>
<path d="M71.5559 50.5422H68.1478V41.1783H57.9601V50.5422H54.4785V30.8567H57.9601V39.6462H68.1039V30.8567H71.5559V50.5422Z" fill="#D4E3ED"/>
<path d="M126.733 50.5423H123.154V30.8567H126.733V50.5423Z" fill="#D4E3ED"/>
<path d="M78.7542 50.5422H75.1758V30.8567H78.7542V50.5422Z" fill="#D4E3ED"/>
<path d="M120.154 32.4594H108.384V39.5262H117.537V41.0561H108.369V48.8372H120.301V50.4835L104.961 50.5418V30.8567H120.154V32.4594Z" fill="#D4E3ED"/>
<path d="M139.709 30.8567C140.469 30.8567 141.072 30.9323 141.711 30.9908C143.687 31.1661 145.359 31.9259 146.697 33.3287C148.368 35.0529 149.22 37.3617 149.25 40.1672C149.25 46.4505 145.181 50.5483 139.078 50.5483H129.957V30.8567H139.709ZM133.624 48.936H136.634C139.583 48.936 141.492 48.7491 143.139 47.62C145.152 46.2409 145.743 43.8204 145.743 40.3134C145.743 37.6539 145.246 36.0595 143.999 34.6274C142.692 33.1663 140.89 32.4653 137.363 32.4653H133.624V48.936Z" fill="#D4E3ED"/>
<path d="M162.417 30.8573V30.8567C162.411 30.8567 162.406 30.857 162.4 30.857C162.394 30.857 162.389 30.8567 162.383 30.8567V30.8573C155.768 30.871 151.301 34.8721 151.301 40.7987C151.301 43.8663 152.361 46.2244 154.602 48.099C156.78 49.9138 159.015 50.3375 162.392 50.5409C162.392 50.5409 162.608 50.5417 162.611 50.5419L162.408 50.5409C162.924 50.5409 167.443 50.4143 170.198 48.099C172.435 46.2188 173.499 43.8663 173.499 40.7987C173.499 34.8721 169.032 30.871 162.417 30.8573ZM170.065 40.7987C170.065 46.1893 167.272 49.2426 162.409 49.1397V49.1393H162.408V49.1397L162.394 49.1391C156.908 49.028 154.682 45.424 154.735 40.8107L154.735 40.7987C154.735 40.7709 154.736 40.744 154.736 40.7163C154.737 40.6765 154.737 40.6371 154.738 40.5971C154.738 40.5907 154.738 40.5843 154.738 40.5779C154.785 37.0279 155.944 34.4639 158.142 33.1232C159.246 32.4285 160.649 32.0367 162.401 32.0549C162.415 32.0549 162.428 32.056 162.441 32.0562C163.367 32.0506 164.288 32.1851 165.174 32.4552C165.193 32.461 165.212 32.467 165.231 32.4731C165.312 32.4995 165.393 32.5272 165.472 32.556C165.556 32.5858 165.638 32.6167 165.719 32.6489L165.728 32.6527C168.858 33.9026 170.065 36.98 170.065 40.5971C170.065 40.6302 170.064 40.6618 170.063 40.6945C170.064 40.7295 170.065 40.7635 170.065 40.7987V40.7987Z" fill="#D4E3ED"/>
</g>
<defs>
<clipPath id="clip0">
<rect width="150" height="24" fill="white" transform="translate(23.5 28)"/>
</clipPath>
</defs>
</svg>
