<svg width="138" height="32" fill="#250e62" viewBox="0 0 138 32" xmlns="http://www.w3.org/2000/svg">
  <path d="M38.1684 0.809028C37.5472 0.158915 36.377 0.014447 35.1923 0C34.0221 0.014447 32.8375 0.158915 32.2163 0.809028C31.5661 1.43025 31.4217 2.60045 31.4072 3.7851C31.4217 4.95531 31.5661 6.13996 32.2163 6.76118C32.8375 7.41129 34.0077 7.55576 35.1923 7.5702C36.3625 7.55576 37.5472 7.41129 38.1684 6.76118C38.8185 6.13996 38.963 4.96975 38.9774 3.7851C38.963 2.60045 38.8185 1.43025 38.1684 0.809028Z" />
  <path d="M27.6948 0.809028C27.0735 0.158915 25.9033 0.014447 24.7187 0C23.5485 0.014447 22.3638 0.158915 21.7426 0.809028C21.0925 1.43025 20.948 2.60045 20.9336 3.7851C20.948 4.95531 21.0925 6.13996 21.7426 6.76118C22.3638 7.41129 23.534 7.55576 24.7187 7.5702C25.8889 7.55576 27.0735 7.41129 27.6948 6.76118C28.3449 6.13996 28.4893 4.96975 28.5038 3.7851C28.4893 2.60045 28.3449 1.43025 27.6948 0.809028Z" />
  <path d="M17.2348 0.809028C16.6136 0.158915 15.4434 0.014447 14.2587 0C13.0885 0.014447 11.9039 0.158915 11.2827 0.809028C10.6325 1.43025 10.4881 2.60045 10.4736 3.7851C10.4881 4.95531 10.6325 6.13996 11.2827 6.76118C11.9039 7.41129 13.0741 7.55576 14.2587 7.5702C15.4289 7.55576 16.6136 7.41129 17.2348 6.76118C17.8849 6.13996 18.0294 4.96975 18.0438 3.7851C18.0294 2.60045 17.8849 1.43025 17.2348 0.809028Z" />
  <path d="M17.2348 11.283C16.6136 10.6329 15.4434 10.4884 14.2587 10.474C13.0885 10.4884 11.9039 10.6329 11.2827 11.283C10.6325 11.9042 10.4881 13.0745 10.4736 14.2591C10.4881 15.4293 10.6325 16.614 11.2827 17.2352C11.9039 17.8853 13.0741 18.0298 14.2587 18.0442C15.4289 18.0298 16.6136 17.8853 17.2348 17.2352C17.8849 16.614 18.0294 15.4438 18.0438 14.2591C18.0294 13.0745 17.8849 11.9042 17.2348 11.283Z" />
  <path d="M6.76118 0.809028C6.13996 0.158915 4.96975 0.014447 3.7851 0C2.6149 0.014447 1.43025 0.158915 0.809028 0.809028C0.158915 1.43025 0.014447 2.60045 0 3.7851C0.014447 4.95531 0.158915 6.13996 0.809028 6.76118C1.43025 7.41129 2.60045 7.55576 3.7851 7.5702C4.95531 7.55576 6.13996 7.41129 6.76118 6.76118C7.41129 6.13996 7.55576 4.96975 7.5702 3.7851C7.55576 2.60045 7.41129 1.43025 6.76118 0.809028Z" />
  <path d="M28.5038 14.5048C28.5038 15.3427 28.5038 17.033 28.5038 17.8854C28.4893 19.0556 28.3449 20.2402 27.6948 20.8615C27.0735 21.5116 25.9033 21.656 24.7187 21.6705C23.5485 21.656 22.3638 21.5116 21.7426 20.8615C21.0925 20.2402 20.9336 19.07 20.9336 17.8854C20.9336 17.0186 20.9336 15.2705 20.9336 14.3892C20.948 13.219 21.0925 12.0344 21.7426 11.4132C22.3638 10.763 23.534 10.6186 24.7187 10.6041C25.8889 10.6186 27.0735 10.763 27.6948 11.4132C28.3449 12.0344 28.5038 13.2046 28.5038 14.3892" />
  <path d="M18.0438 24.8343C18.0438 25.6722 18.0438 27.3625 18.0438 28.2149C18.0294 29.3851 17.8849 30.5697 17.2348 31.1909C16.6136 31.841 15.4434 31.9855 14.2587 32C13.0885 31.9855 11.9039 31.841 11.2827 31.1909C10.6325 30.5697 10.4736 29.3995 10.4736 28.2149C10.4736 27.348 10.4736 25.6 10.4736 24.7187C10.4881 23.5485 10.6325 22.3638 11.2827 21.7426C11.9039 21.0925 13.0741 20.948 14.2587 20.9336C15.4289 20.948 16.6136 21.0925 17.2348 21.7426C17.8849 22.3638 18.0438 23.534 18.0438 24.7187" />
  <path d="M62.989 14.6783C62.5556 14.5627 62.1511 14.5338 61.7899 14.5338C59.2617 14.5338 58.4382 16.5275 58.4382 17.6543V24.7333H53.7285V10.9654H58.2504V12.9591H58.3082C59.0306 11.5433 60.4319 10.5753 62.18 10.5753C62.5556 10.5753 62.9601 10.6042 63.1768 10.6909L62.989 14.6783Z" />
  <path d="M64.8812 12.8578C66.5715 11.312 68.9263 10.5319 71.2523 10.5319C76.0487 10.5319 77.8256 12.8 77.8256 17.8131V24.7621H73.5204V23.303H73.4337C72.7114 24.4298 71.1078 25.0944 69.3886 25.0944C67.0915 25.0944 64.2021 24.0109 64.2021 20.7748C64.2021 16.7874 69.2297 16.1228 73.376 16.1228V15.9061C73.376 14.5481 72.2635 13.9124 70.79 13.9124C69.4464 13.9124 68.1462 14.5481 67.2649 15.3282L64.8812 12.8578ZM73.5204 18.7377H72.9137C70.8477 18.7377 68.5218 18.9833 68.5218 20.6158C68.5218 21.6705 69.6053 22.0316 70.5588 22.0316C72.4803 22.0316 73.5204 20.9481 73.5204 19.2145V18.7377Z" />
  <path d="M80.7298 12.8578C82.4201 11.312 84.7749 10.5319 87.1009 10.5319C91.8973 10.5319 93.6743 12.8 93.6743 17.8131V24.7621H89.3691V23.303H89.2824C88.56 24.4298 86.9564 25.0944 85.2372 25.0944C82.9402 25.0944 80.0508 24.0109 80.0508 20.7748C80.0508 16.7874 85.0783 16.1228 89.2246 16.1228V15.9061C89.2246 14.5481 88.1122 13.9124 86.6386 13.9124C85.295 13.9124 83.9948 14.5481 83.1135 15.3282L80.7298 12.8578ZM89.3546 18.7377H88.7478C86.6819 18.7377 84.356 18.9833 84.356 20.6158C84.356 21.6705 85.4395 22.0316 86.393 22.0316C88.3144 22.0316 89.3546 20.9481 89.3546 19.2145V18.7377Z" />
  <path d="M106.373 15.4292C105.824 14.7647 104.828 14.3168 103.874 14.3168C101.924 14.3168 100.58 15.9782 100.58 17.8563C100.58 19.7633 101.866 21.3669 103.932 21.3669C104.885 21.3669 105.911 21.0057 106.489 20.3412L109.104 23.4184C107.934 24.5308 105.926 25.1954 103.831 25.1954C99.3233 25.1954 95.8271 22.436 95.8271 17.8707C95.8271 13.3633 99.3233 10.5461 103.802 10.5461C105.868 10.5461 107.963 11.2974 109.104 12.3954L106.373 15.4292Z" />
  <path d="M126.31 24.7477H120.488L115.807 18.4488H115.72V24.7477H110.981V5.15759H115.72V16.8741H115.807L120.372 10.9653H126.079L120.574 17.5097L126.31 24.7477Z" />
  <path d="M137.102 14.6783C136.669 14.5627 136.264 14.5338 135.903 14.5338C133.375 14.5338 132.552 16.5275 132.552 17.6543V24.7333H127.842V10.9654H132.378V12.9591H132.436C133.158 11.5433 134.56 10.5753 136.308 10.5753C136.683 10.5753 137.088 10.6042 137.305 10.6909L137.102 14.6783Z" />
  <path d="M50.6659 14.3747V10.9797H47.3142V7.35352H43.5869H43.5725C43.5725 7.36796 43.5725 7.38241 43.5725 7.39686C43.558 8.56706 43.4136 9.75171 42.7635 10.3729C42.2578 10.9075 41.3766 11.0953 40.4375 11.1675V14.3892H42.7346V20.1824C42.7346 23.144 43.9915 25.0799 47.8054 25.0799C48.8167 25.0799 49.8714 24.8921 50.5359 24.661L50.4781 21.3382C50.1314 21.4826 49.5535 21.5549 49.1057 21.5549C47.7621 21.5549 47.3287 20.9192 47.3287 19.619V14.3603H50.6659V14.3747Z" />
</svg>