<svg width="195" height="80" viewBox="0 0 195 80" fill="none" xmlns="http://www.w3.org/2000/svg">
<path d="M3.2207 32.938H9.12251V48.3397H10.937V32.938H16.8394V31.1235H3.2207V32.938Z" fill="#D4E3ED"/>
<path d="M153.719 43.6215H143.203V31.1235H141.389V48.3397H143.203V45.4359H153.719V48.3397H155.534V31.1235H153.719V43.6215Z" fill="#D4E3ED"/>
<path d="M70.0254 32.938H75.9278V48.3397H77.7423V32.938H83.6447V31.1235H70.0254V32.938Z" fill="#D4E3ED"/>
<path d="M179.175 45.4363H189.56L190.98 48.3401H193L184.368 30.6953L175.734 48.3401H177.754L179.175 45.4363ZM188.672 43.6218H180.063L184.368 34.8242L188.672 43.6218Z" fill="#D4E3ED"/>
<path d="M37.8687 45.4363H48.2534L49.6742 48.3401H51.6942L43.0611 30.6953L34.4277 48.3401H36.4478L37.8687 45.4363ZM47.3654 43.6218H38.7565L43.0611 34.8242L47.3654 43.6218Z" fill="#D4E3ED"/>
<path d="M112.971 47.2647C108.616 47.2647 105.072 43.9004 105.072 39.765C105.072 35.6296 108.616 32.2657 112.971 32.2657C115.02 32.2571 116.996 33.0263 118.5 34.418L119.772 33.1259C117.929 31.3993 115.496 30.4424 112.971 30.4512C107.615 30.4512 103.258 34.6294 103.258 39.7651C103.258 44.9007 107.615 49.0792 112.971 49.0792C115.476 49.0874 117.89 48.1455 119.728 46.4433L118.456 45.151C116.957 46.5182 115 47.2727 112.971 47.2647Z" fill="#D4E3ED"/>
</svg>
