<svg width="196" height="80" viewBox="0 0 196 80" fill="none" xmlns="http://www.w3.org/2000/svg">
<path d="M62.3085 38.6463L62.6144 38.9522H67.2177V31.655C70.3124 31.655 73.3165 31.655 76.3206 31.655C77.2259 31.8763 78.0969 32.2199 78.9095 32.6764C79.3132 32.8825 79.6619 33.1819 79.9267 33.5497C80.1915 33.9175 80.3648 34.3431 80.4323 34.7913C81.2145 37.7069 79.731 40.0566 76.4058 40.6476L81.2243 48.622H79.0537L74.4253 40.8311H69.208C69.1747 40.8536 69.1443 40.88 69.1174 40.9098C68.9775 43.4397 69.1174 46.044 69.0671 48.6384H67.269V40.8595H62.6231C62.1862 41.8503 62.2058 42.9842 61.7678 44.0143C61.5593 44.5032 61.2942 44.9658 60.978 45.3929C58.3497 49.6139 52.193 50.36 48.1676 47.6039C42.7056 43.467 43.6604 33.57 50.6473 31.6059C52.8006 30.9467 55.1134 31.0333 57.2114 31.8517C58.6111 32.3947 59.8306 33.3192 60.7316 34.5201C61.6325 35.7211 62.1788 37.1506 62.3085 38.6463V38.6463ZM53.1805 47.3658C53.6855 47.4 54.1924 47.3956 54.6968 47.3527C55.4292 47.2889 56.1463 47.1066 56.8204 46.813C57.9771 46.1807 58.9438 45.2506 59.6205 44.1192C60.2971 42.9878 60.6591 41.696 60.6688 40.3778C60.7164 39.1452 60.4573 37.92 59.9149 36.8122C59.3725 35.7043 58.5637 34.7483 57.561 34.0299C56.4361 33.2299 55.0657 32.8509 53.6896 32.9594C52.3114 32.8492 50.9369 33.2135 49.7941 33.9917C48.8006 34.609 47.9801 35.4685 47.4094 36.4895C46.8387 37.5105 46.5365 38.6597 46.5312 39.8294C46.4712 40.6742 46.5686 41.5228 46.8185 42.332C47.034 43.2265 47.4315 44.067 47.9864 44.8009C48.5412 45.5349 49.2414 46.1466 50.0432 46.5978C50.9789 47.1854 52.0791 47.4555 53.1805 47.3679V47.3658ZM78.8025 36.6254L78.4966 34.9246C78.0241 34.3268 77.4244 33.8417 76.7411 33.5045C76.0476 33.3513 75.3415 33.2613 74.6317 33.2357C72.8031 33.192 70.9318 33.2357 69.1075 33.2237V38.9882C70.7953 38.9882 72.4437 38.9882 74.0921 38.9882C74.9372 39.0498 75.7866 38.9682 76.6046 38.7468C77.2915 38.5356 77.8852 38.0953 78.2868 37.4993C78.4234 37.2492 78.5763 37.0077 78.8025 36.6254Z" fill="#D4E3ED"/>
<path d="M38.4129 35.1157L38.0852 35.06C37.4549 36.313 36.9109 37.6107 36.3679 38.8954C35.7278 40.4138 35.0756 41.9377 34.4497 43.4648C33.7801 45.1034 33.082 46.742 32.3283 48.3434C32.2759 48.4527 32.1491 48.5302 32.029 48.6504H31.1638C30.5259 47.2543 29.8344 45.8823 29.2641 44.4611C28.5748 42.7395 27.7807 41.0638 27.0684 39.352C26.4779 37.7771 25.7326 36.2648 24.8433 34.8371V48.6012C24.2339 48.677 23.6197 48.7069 23.0059 48.6908V31.6976C23.3762 31.6845 23.7957 31.6649 24.2162 31.6572C24.6368 31.6496 25.0748 31.6572 25.5194 31.6572C25.8342 32.0988 26.1019 32.5722 26.318 33.0697C26.9669 35.1867 28.2275 37.1049 28.9277 39.1794C29.1571 39.9692 29.8398 40.5776 29.7743 41.4537L31.7111 45.4104C33.3846 41.28 35.3094 37.4829 36.8967 33.334C37.1344 32.7571 37.427 32.2043 37.7706 31.6834H40.2022V48.6231C39.6083 48.6858 39.0111 48.7109 38.414 48.6984L38.4129 35.1157Z" fill="#D4E3ED"/>
<path d="M85.0469 31.6821H96.5344V33.2038H86.9116V38.9378H95.9675C96.0416 39.55 96.0803 40.1661 96.0833 40.7828H86.9422V47.0837H97.0435V48.6513H85.0469V31.6821Z" fill="#D4E3ED"/>
<path d="M8.74346 41.1294L5.57554 48.6232H3.5C3.63764 48.3272 3.74142 48.1163 3.83536 47.9C4.54432 46.2735 5.24782 44.6436 5.96224 43.0225C6.8864 41.2354 7.54729 39.4111 8.35348 37.5923C8.60844 36.7439 8.95917 35.9274 9.39889 35.1584C10.0467 34.066 10.2728 32.8065 11.067 31.6978H12.9459C13.6133 33.7602 14.757 35.6839 15.4027 37.8206C15.6681 38.6945 16.2307 39.4832 16.5726 40.344C17.1188 41.7302 17.7502 43.0848 18.2571 44.4951C18.5291 45.251 18.9442 45.9545 19.2621 46.6951C19.5286 47.3189 19.7482 47.9634 19.9994 48.6276H17.9752C16.838 46.2647 15.9838 43.6485 14.7549 41.1338L8.74346 41.1294ZM14.2535 39.4745C13.2998 37.624 12.7744 35.7418 11.8196 33.9961C11.0877 35.6271 10.37 37.2045 9.67745 38.7939C9.62061 39.016 9.60032 39.2458 9.61737 39.4745H14.2535Z" fill="#D4E3ED"/>
<path d="M114.565 48.928H113.34C113.401 48.8347 113.457 48.7381 113.507 48.6385C115.159 44.8512 116.759 41.1109 118.367 37.3039C118.735 36.3372 119.269 35.4207 119.644 34.432C120.03 33.4172 120.555 32.4559 121.04 31.428H122.227C123.242 33.2206 123.851 35.2513 124.718 37.1554C125.601 39.0987 126.396 41.088 127.223 43.0543C128.029 44.9747 128.829 46.8984 129.664 48.9007H128.36C127.354 46.4341 126.331 43.9293 125.289 41.3862H117.78C116.632 43.7807 115.579 46.3139 114.565 48.928ZM121.602 32.3106C120.452 35.0066 119.353 37.5869 118.222 40.2435H124.776C123.719 37.5595 122.59 35.0263 121.602 32.3106Z" fill="#D4E3ED"/>
<path d="M145.482 45.822C146.393 45.7467 146.66 46.0405 146.609 46.6381C145.399 48.0701 143.688 48.9863 141.826 49.1997C141.215 49.1997 140.599 49.1505 139.995 49.2117C138.38 49.2652 136.787 48.8237 135.43 47.9462C134.072 47.0688 133.016 45.7974 132.402 44.3025C132.225 43.9405 132.074 43.5667 131.948 43.1839C131.811 42.5729 131.723 41.9519 131.684 41.3269C131.639 40.6321 131.678 39.9319 131.673 39.2349C131.711 37.9272 132.055 36.6466 132.676 35.4954C133.298 34.3442 134.18 33.3544 135.253 32.6052C138.342 30.6007 143.009 30.3921 145.765 33.0357C145.947 33.2235 146.135 33.406 146.364 33.6343L145.468 34.2307C144.178 33.1755 142.896 31.9837 141.098 32.1606C140.88 32.1705 140.611 31.8777 140.428 31.9323C139.137 32.3354 137.679 32.1388 136.542 32.9668C135.143 33.9013 134.042 35.2193 133.372 36.7629C132.702 38.3066 132.491 40.0106 132.764 41.671C132.951 43.2286 133.63 44.6858 134.703 45.8297C136.926 48.3323 141.258 49.1647 144.052 47.3394C144.589 46.8936 145.069 46.3841 145.482 45.822V45.822Z" fill="#D4E3ED"/>
<path d="M193.501 46.4241C192.682 47.4608 191.605 48.2635 190.378 48.7514C189.151 49.2392 187.816 49.3951 186.51 49.2031C185.361 49.2343 184.22 49.0047 183.172 48.5317C182.125 48.0587 181.198 47.3546 180.462 46.4721C179.519 45.3415 178.859 44.003 178.535 42.5669C178.202 41.2099 178.154 39.7988 178.394 38.4223C178.634 37.0459 179.156 35.7341 179.928 34.5695C180.973 33.0661 182.504 31.9684 184.264 31.4606C186.09 30.8521 188.064 30.8464 189.894 31.4442C190.742 31.6456 191.511 32.0951 192.103 32.7354C192.351 33.0132 192.613 33.2782 192.888 33.5295L192.238 34.3161C191.07 33.4422 189.97 32.2875 188.43 32.1848C188.135 32.1969 187.844 32.1175 187.597 31.9576C187.426 31.8243 187.031 31.9576 186.742 32.0057C186.587 32.0297 186.444 32.1662 186.292 32.1728C185.378 32.199 184.479 32.4102 183.649 32.7938C182.819 33.1774 182.075 33.7254 181.463 34.4045C180.469 35.5072 179.813 36.8722 179.573 38.3371C179.401 39.1629 179.334 40.0071 179.373 40.8496C179.455 42.5342 180.04 44.1555 181.053 45.5043C182.009 46.7872 183.39 47.6885 184.95 48.0474C185.947 48.2571 186.998 48.812 188.129 48.209C188.595 47.9578 189.277 48.2156 189.794 47.8147C190.261 47.4835 190.753 47.1877 191.264 46.9299C191.81 46.6218 192.115 46.104 192.7 45.7457L193.501 46.4241Z" fill="#D4E3ED"/>
<path d="M105.092 40.2982L104.688 40.7024V48.8953H103.711V31.3941C105.459 31.3941 107.24 31.3035 109.002 31.4433C111.259 31.5252 113.492 32.4734 114.02 34.8494C114.172 35.3951 114.215 35.9655 114.146 36.5279C114.077 37.0903 113.898 37.6335 113.619 38.1265C113.063 39.0575 112.176 39.7442 111.135 40.0491C109.182 40.5942 107.096 40.1682 105.092 40.2982ZM110.663 39.1588C110.881 39.0387 111.158 38.8639 111.453 38.7306C111.745 38.6115 112.007 38.4292 112.22 38.1969C112.433 37.9646 112.592 37.688 112.686 37.387C112.87 36.7621 113.268 36.0958 113.043 35.4666C112.874 34.6935 112.468 33.9928 111.88 33.4631C111.124 32.9905 110.294 32.6468 109.425 32.4461C107.954 32.4352 106.481 32.4461 105.084 32.4461L104.713 32.8175V39.1403C104.822 39.2495 104.911 39.4188 105.011 39.4276C106.897 39.6441 108.806 39.5534 110.663 39.1588V39.1588Z" fill="#D4E3ED"/>
<path d="M158.913 40.2512V48.9007H157.93V31.4258H167.833L168.223 32.4089H158.954V39.4963H167.275V40.2512H158.913Z" fill="#D4E3ED"/>
<path d="M172.848 31.7568C173.19 31.3023 173.612 31.3613 174.076 31.4411V48.881C173.863 48.9269 173.643 48.926 173.431 48.8783C173.219 48.8306 173.02 48.7372 172.848 48.6046V31.7568Z" fill="#D4E3ED"/>
<path d="M151.627 31.418H152.587V48.8962L151.627 48.9552V31.418Z" fill="#D4E3ED"/>
</svg>
