<svg width="195" height="80" viewBox="0 0 195 80" fill="none" xmlns="http://www.w3.org/2000/svg">
<path d="M104.605 51.5577H123.962V49.1706H107.924V41.5322H119.971V39.1169H107.924V32.0795H123.962V29.7011H104.605V51.5577Z" fill="#D4E3ED"/>
<path d="M114.665 26.1679L112.044 29.1404L120.271 26.1679H114.665Z" fill="#D4E3ED"/>
<path d="M156.457 49.1706V29.7011H153.432V51.5577H173V49.1706H156.457Z" fill="#D4E3ED"/>
<path d="M136.505 29.7011L125.497 51.5577H129.218L132.034 45.9006H145.236L148.076 51.5577H151.758L140.742 29.7011H136.505ZM133.427 43.161L138.614 32.7212L143.862 43.161H133.427Z" fill="#D4E3ED"/>
<path d="M94.1019 42.4183C99.0614 41.0822 99.5433 37.3565 99.5182 36.0246C99.2221 32.12 96.6164 29.7011 91.9344 29.7011H78.29V51.5577H81.4004V42.3892H90.2832L96.8182 51.5577H100.739C100.739 51.5577 96.0357 45.3872 94.1019 42.4183ZM91.5097 39.8067H81.4004V32.2881H91.862C94.2706 32.2881 95.6255 33.4234 96.1136 34.8655C96.4364 35.854 96.2294 37.1517 95.6953 38.0352C94.8209 39.4958 93.1601 39.8067 91.5097 39.8067Z" fill="#D4E3ED"/>
<path d="M59.5978 26C50.8175 26 44.8331 32.2502 44.8331 39.8152C44.8331 47.7792 51.4438 53.4013 59.5978 53.4013C67.7463 53.4013 74.3544 47.8595 74.3544 39.8152C74.3544 32.2502 68.2959 26 59.5978 26ZM59.4924 50.6882C53.4178 50.6882 48.4126 45.7597 48.4126 39.8226C48.4126 33.8936 53.1815 28.729 59.7279 28.729C66.1121 28.729 70.805 33.8936 70.805 39.8226C70.805 45.7595 65.5644 50.6882 59.4924 50.6882Z" fill="#D4E3ED"/>
<path d="M36.9993 37.4332H39.2437L43.3175 29.7011H40.0392L36.9993 37.4332Z" fill="#D4E3ED"/>
<path d="M26.0272 49.1706V29.7011H23V51.5577H42.5673V49.1706H26.0272Z" fill="#D4E3ED"/>
</svg>
